<svg  viewBox="0 0 20 5" fill="currentColor" stroke="currentColor" xmlns="http://www.w3.org/2000/svg" xmlns:xlink="http://www.w3.org/1999/xlink"><defs><path id="a" d="M5.087 4.8H.56V.183h4.527z"/><path id="c" d="M0 .183V4.8h4.526V.183z"/><path id="e" d="M4.647.183V4.8H.12V.183h4.527z"/></defs><g stroke="none" fill="none" fill-rule="evenodd"><g transform="translate(7.059 .017)"><mask id="b" fill="#fff"><use xlink:href="#a"/></mask><path d="M2.824.183C1.575.183.56 1.218.56 2.492.56 3.765 1.575 4.8 2.824 4.8c1.248 0 2.263-1.035 2.263-2.308 0-1.274-1.015-2.31-2.263-2.31" fill="#4E4E4E" mask="url(#b)"/></g><g transform="translate(0 .017)"><mask id="d" fill="#fff"><use xlink:href="#c"/></mask><path d="M2.263.183C1.015.183-.001 1.218-.001 2.492 0 3.765 1.015 4.8 2.263 4.8c1.248 0 2.263-1.035 2.263-2.308 0-1.274-1.015-2.31-2.263-2.31" fill="#4E4E4E" mask="url(#d)"/></g><g transform="translate(15.118 .017)"><mask id="f" fill="#fff"><use xlink:href="#e"/></mask><path d="M2.384.183C1.134.183.12 1.218.12 2.492.12 3.765 1.135 4.8 2.384 4.8c1.248 0 2.264-1.035 2.264-2.308 0-1.274-1.016-2.31-2.264-2.31" fill="#4E4E4E" mask="url(#f)"/></g></g></svg>