<?xml version="1.0" encoding="UTF-8"?>
<svg width="1em" height="1em" viewBox="0 0 15 21" version="1.1" fill="currentColor" stroke="currentColor" xmlns="http://www.w3.org/2000/svg" xmlns:xlink="http://www.w3.org/1999/xlink">
    <!-- Generator: Sketch 50.2 (55047) - http://www.bohemiancoding.com/sketch -->
    <title>Page 1</title>
    <desc>Created with Sketch.</desc>
    <defs></defs>
    <g id="new" stroke="none" stroke-width="1" fill="none" fill-rule="evenodd">
        <g id="Icon-图标" transform="translate(-224.000000, -1430.000000)" fill="#4E4E4E">
            <g id="Group-13" transform="translate(202.000000, 1429.000000)">
                <g id="Page-1" transform="translate(22.000000, 0.000000)">
                    <g id="Group-3" transform="translate(0.000000, 0.574567)">
                        <path d="M0.2783,6.96031111 L5.99707778,1.09242222 C6.5703,0.503311111 7.5163,0.498422222 8.09563333,1.08142222 L13.9439667,6.95297778 C14.5550778,7.56653333 14.1199667,8.61153333 13.2546333,8.61153333 L0.973744444,8.61153333 C0.1133,8.61153333 -0.321811111,7.57631111 0.2783,6.96031111" id="Fill-1"></path>
                    </g>
                    <g id="Group-6" transform="translate(0.000000, 12.796789)">
                        <path d="M0.2783,2.24265556 L5.99707778,8.11054444 C6.5703,8.69965556 7.5163,8.70454444 8.09563333,8.12154444 L13.9439667,2.24998889 C14.5550778,1.63643333 14.1199667,0.591433333 13.2546333,0.591433333 L0.973744444,0.591433333 C0.1133,0.591433333 -0.321811111,1.62665556 0.2783,2.24265556" id="Fill-4"></path>
                    </g>
                </g>
            </g>
        </g>
    </g>
</svg>