<?xml version="1.0" encoding="UTF-8"?>
<svg width="1em" height="1em" viewBox="0 0 35 33" version="1.1" fill="currentColor" stroke="currentColor" xmlns="http://www.w3.org/2000/svg" xmlns:xlink="http://www.w3.org/1999/xlink">
    <!-- Generator: Sketch 50.2 (55047) - http://www.bohemiancoding.com/sketch -->
    <title>Page 1</title>
    <desc>Created with Sketch.</desc>
    <defs></defs>
    <g id="new" stroke="none" stroke-width="1" fill="none" fill-rule="evenodd">
        <g id="Icon-图标" transform="translate(-535.000000, -1583.000000)" stroke="#4E4E4E" stroke-width="2.6">
            <g id="Group-11" transform="translate(204.000000, 1585.000000)">
                <g id="Page-1" transform="translate(333.000000, 0.000000)">
                    <path d="M6.55564138,12.3028966 C6.55564138,11.0372414 5.27674483,10.1081379 4.10488276,10.5881379 C1.75674483,11.5536552 0.102675862,13.8631724 0.102675862,16.5588966 C0.102675862,19.2557241 1.75674483,21.5663448 4.10488276,22.5307586 C5.27674483,23.0118621 6.55564138,22.0827586 6.55564138,20.816 L6.55564138,12.3028966 Z" id="Stroke-1"></path>
                    <path d="M24.4457379,12.3028966 C24.4457379,11.0372414 25.7246345,10.1081379 26.8964966,10.5881379 C29.2446345,11.5536552 30.8987034,13.8631724 30.8987034,16.5588966 C30.8987034,19.2557241 29.2446345,21.5663448 26.8964966,22.5307586 C25.7246345,23.0118621 24.4457379,22.0827586 24.4457379,20.816 L24.4457379,12.3028966 Z" id="Stroke-3"></path>
                    <path d="M4.78295172,9.86868966 C4.78295172,4.41875862 9.20115862,0.000551724138 14.6510897,0.000551724138 L16.3492966,0.000551724138 C21.800331,0.000551724138 26.2185379,4.41875862 26.2185379,9.86868966" id="Stroke-5"></path>
                    <path d="M26.2183172,23.0637241 C26.2183172,25.3842759 24.3380414,27.2656552 22.0174897,27.2656552 L17.9181793,27.2656552" id="Stroke-7"></path>
                    <path d="M15.7280552,29.4548966 L12.2455724,29.4548966 C11.0361931,29.4548966 10.0552276,28.473931 10.0552276,27.2656552 C10.0552276,26.0551724 11.0361931,25.0753103 12.2455724,25.0753103 L15.7280552,25.0753103 C16.9374345,25.0753103 17.9172966,26.0551724 17.9172966,27.2656552 C17.9172966,28.473931 16.9374345,29.4548966 15.7280552,29.4548966 Z" id="Stroke-9"></path>
                </g>
            </g>
        </g>
    </g>
</svg>