<?xml version="1.0" encoding="UTF-8"?>
<svg width="1em" height="1em" viewBox="0 0 37 37" version="1.1" fill="currentColor" stroke="currentColor" xmlns="http://www.w3.org/2000/svg" xmlns:xlink="http://www.w3.org/1999/xlink">
    <!-- Generator: Sketch 50.2 (55047) - http://www.bohemiancoding.com/sketch -->
    <title>Page 1</title>
    <desc>Created with Sketch.</desc>
    <defs></defs>
    <g id="new" stroke="none" stroke-width="1" fill="none" fill-rule="evenodd">
        <g id="Icon-图标" transform="translate(-374.000000, -792.000000)">
            <g id="Group-12" transform="translate(322.000000, 794.000000)">
                <g id="Page-1" transform="translate(54.000000, 0.000000)">
                    <path d="M33,16.5 C33,25.6131778 25.6131778,33 16.5,33 C7.38682217,33 0,25.6131778 0,16.5 C0,7.38682217 7.38682217,0 16.5,0 C25.6131778,0 33,7.38682217 33,16.5 Z" id="Stroke-1" stroke="#4E4E4E" stroke-width="2.6" stroke-linecap="round" stroke-linejoin="round"></path>
                    <g id="Group-19" transform="translate(15.000000, 7.000000)" fill="#4E4E4E">
                        <path d="M1.10344828,14.2068966 C0.493241379,14.2068966 0,13.7125517 0,13.1034483 L0,1.10344828 C0,0.494344828 0.493241379,0 1.10344828,0 C1.71365517,0 2.20689655,0.494344828 2.20689655,1.10344828 L2.20689655,13.1034483 C2.20689655,13.7125517 1.71365517,14.2068966 1.10344828,14.2068966" id="Fill-3"></path>
                        <path d="M1.10344828,18.2090131 C0.96,18.2090131 0.816551724,18.1759097 0.684137931,18.1207373 C0.540689655,18.0655648 0.430344828,17.9883235 0.32,17.8779786 C0.120275862,17.6793579 0,17.3924614 0,17.1055648 C0,16.8076338 0.120275862,16.5317717 0.32,16.3221166 C0.430344828,16.2228062 0.540689655,16.1345304 0.684137931,16.0793579 C1.09241379,15.9138407 1.57793103,16.013151 1.88689655,16.3221166 C2.08551724,16.5317717 2.20689655,16.8076338 2.20689655,17.1055648 C2.20689655,17.2490131 2.1737931,17.3924614 2.11862069,17.5248752 C2.06344828,17.657289 1.9862069,17.7786683 1.88689655,17.8779786 C1.67724138,18.0876338 1.39034483,18.2090131 1.10344828,18.2090131" id="Fill-5"></path>
                    </g>
                </g>
            </g>
        </g>
    </g>
</svg>