<?xml version="1.0" encoding="UTF-8"?>
<svg width="1em" height="1em" viewBox="0 0 31 32" version="1.1" fill="currentColor" stroke="currentColor" xmlns="http://www.w3.org/2000/svg" xmlns:xlink="http://www.w3.org/1999/xlink">
    <!-- Generator: Sketch 50.2 (55047) - http://www.bohemiancoding.com/sketch -->
    <title>Page 1</title>
    <desc>Created with Sketch.</desc>
    <defs></defs>
    <g id="new" stroke="none" stroke-width="1" fill="none" fill-rule="evenodd">
        <g id="Icon-图标" transform="translate(-219.000000, -1108.000000)" fill="#4E4E4E">
            <g id="Group-8" transform="translate(182.000000, 950.000000)">
                <g id="Group-14" transform="translate(24.000000, 158.000000)">
                    <g id="Page-1" transform="translate(13.000000, 0.000000)">
                        <path d="M15.0125241,3.84651034 C15.7463172,2.66582069 15.3843862,1.11326897 14.2036966,0.379475862 C13.0219034,-0.354317241 11.4693517,0.0076137931 10.7355586,1.1894069 C10.0017655,2.37009655 10.3636966,3.92264828 11.5443862,4.65644138 C12.7261793,5.39023448 14.278731,5.0272 15.0125241,3.84651034" id="Fill-1"></path>
                        <path d="M9.79056552,5.42190345 C9.95497931,4.11873103 9.03249655,2.92811034 7.73042759,2.76369655 C6.42725517,2.59817931 5.23773793,3.52066207 5.07222069,4.82383448 C4.90670345,6.1270069 5.82918621,7.31652414 7.13235862,7.48204138 C8.43442759,7.64755862 9.62615172,6.72507586 9.79056552,5.42190345" id="Fill-3"></path>
                        <path d="M5.8422069,8.96496552 C5.49351724,7.77875862 4.24882759,7.10124138 3.06151724,7.44993103 C1.87531034,7.79862069 1.1977931,9.04331034 1.54648276,10.2295172 C1.89627586,11.4157241 3.14096552,12.0943448 4.32717241,11.7445517 C5.51227586,11.3958621 6.19089655,10.1511724 5.8422069,8.96496552" id="Fill-5"></path>
                        <path d="M3.70107586,13.8846897 C2.95183448,12.9997241 1.62769655,12.8893793 0.742731034,13.6386207 C-0.141131034,14.3878621 -0.251475862,15.7131034 0.497765517,16.5969655 C1.24590345,17.481931 2.57114483,17.5922759 3.4550069,16.8430345 C4.34107586,16.0937931 4.45142069,14.7696552 3.70107586,13.8846897" id="Fill-7"></path>
                        <path d="M3.88755862,19.507531 C2.9065931,19.0496 1.74135172,19.4733241 1.28231724,20.4531862 C0.824386207,21.4341517 1.2470069,22.6016 2.22797241,23.059531 C3.20893793,23.5174621 4.37528276,23.0937379 4.83321379,22.1127724 C5.29224828,21.1329103 4.86852414,19.9665655 3.88755862,19.507531" id="Fill-9"></path>
                        <path d="M6.39503448,24.3852138 C5.3897931,24.3675586 4.56,25.1686621 4.54234483,26.1750069 C4.5257931,27.1802483 5.32689655,28.0100414 6.33213793,28.0265931 C7.33737931,28.0442483 8.16717241,27.2431448 8.18482759,26.2368 C8.20248276,25.2315586 7.40137931,24.402869 6.39503448,24.3852138" id="Fill-11"></path>
                        <path d="M10.6688,27.7203862 C9.80921379,28.0723862 9.39762759,29.0555586 9.74962759,29.9151448 C10.1016276,30.774731 11.0848,31.1863172 11.9443862,30.8343172 C12.8050759,30.4812138 13.2155586,29.4991448 12.8624552,28.6395586 C12.5104552,27.7799724 11.5283862,27.3683862 10.6688,27.7203862" id="Fill-13"></path>
                        <path d="M16.070731,28.9918897 C15.4803862,29.6065103 15.4991448,30.5841655 16.1137655,31.1745103 C16.7294897,31.7659586 17.7060414,31.7460966 18.2974897,31.1314759 C18.8878345,30.5168552 18.8679724,29.5392 18.2544552,28.9488552 C17.638731,28.3574069 16.6610759,28.377269 16.070731,28.9918897" id="Fill-15"></path>
                        <path d="M21.7021793,27.7742345 C21.4417655,28.5058207 21.8224552,29.309131 22.5540414,29.5695448 C23.286731,29.8299586 24.0900414,29.4481655 24.3504552,28.7165793 C24.610869,27.9860966 24.2290759,27.1816828 23.4974897,26.921269 C22.7659034,26.6608552 21.9614897,27.0426483 21.7021793,27.7742345" id="Fill-17"></path>
                        <path d="M26.114869,24.3949241 C26.1579034,25.0934069 26.7592828,25.625269 27.458869,25.5822345 C28.1573517,25.5380966 28.6892138,24.9367172 28.6450759,24.237131 C28.6020414,23.5386483 28.0006621,23.0078897 27.3010759,23.0509241 C26.6025931,23.0939586 26.070731,23.6964414 26.114869,24.3949241" id="Fill-19"></path>
                        <path d="M28.7226483,19.4833655 C28.9985103,20.0439172 29.6760276,20.2745379 30.2365793,19.9986759 C30.797131,19.7239172 31.0277517,19.0464 30.7518897,18.4858483 C30.477131,17.9252966 29.7996138,17.6935724 29.2390621,17.9694345 C28.6785103,18.2452966 28.4467862,18.9228138 28.7226483,19.4833655" id="Fill-21"></path>
                        <path d="M29.0157241,13.7058207 C29.4317241,14.0633379 30.0595862,14.0147862 30.4182069,13.5987862 C30.7757241,13.1816828 30.7271724,12.5538207 30.310069,12.1963034 C29.894069,11.8387862 29.2662069,11.8873379 28.9075862,12.3033379 C28.550069,12.7204414 28.5986207,13.3483034 29.0157241,13.7058207" id="Fill-24"></path>
                    </g>
                </g>
            </g>
        </g>
    </g>
</svg>