<?xml version="1.0" encoding="UTF-8"?>
<svg width="1em" height="1em" viewBox="0 0 27 36" version="1.1" fill="currentColor" stroke="currentColor" xmlns="http://www.w3.org/2000/svg" xmlns:xlink="http://www.w3.org/1999/xlink">
    <!-- Generator: Sketch 50.2 (55047) - http://www.bohemiancoding.com/sketch -->
    <title>Page 1</title>
    <desc>Created with Sketch.</desc>
    <defs></defs>
    <g id="new" stroke="none" stroke-width="1" fill="none" fill-rule="evenodd">
        <g id="Icon-图标" transform="translate(-538.000000, -1422.000000)" stroke="#4E4E4E" stroke-width="2.6">
            <g id="Group-11" transform="translate(518.000000, 1424.000000)">
                <g id="Page-1" transform="translate(22.000000, 0.000000)">
                    <path d="M11.3756308,-0.000123076923 C5.09378462,-0.000123076923 0.000861538462,4.77772308 0.000861538462,10.6718769 C0.000861538462,16.2238769 2.69747692,22.1426462 7.57870769,27.2675692 L11.3756308,31.2552615 L15.1713231,27.2675692 C20.0525538,22.1426462 22.7504,16.2238769 22.7504,10.6718769 C22.7504,4.77772308 17.6574769,-0.000123076923 11.3756308,-0.000123076923 Z" id="Stroke-1"></path>
                    <path d="M15.8684308,11.7299692 C15.8684308,14.2112 13.8561231,16.2235077 11.3761231,16.2235077 C8.89366154,16.2235077 6.88135385,14.2112 6.88135385,11.7299692 C6.88135385,9.24750769 8.89366154,7.23643077 11.3761231,7.23643077 C13.8561231,7.23643077 15.8684308,9.24750769 15.8684308,11.7299692 Z" id="Stroke-3"></path>
                </g>
            </g>
        </g>
    </g>
</svg>