<?xml version="1.0" encoding="UTF-8"?>
<svg width="1em" height="1em" viewBox="0 0 32 32" version="1.1" fill="currentColor" stroke="currentColor" xmlns="http://www.w3.org/2000/svg" xmlns:xlink="http://www.w3.org/1999/xlink">
    <!-- Generator: Sketch 50.2 (55047) - http://www.bohemiancoding.com/sketch -->
    <title>Page 1</title>
    <desc>Created with Sketch.</desc>
    <defs>
        <polygon id="path-1" points="13.4319407 14.2222222 0.000237037037 14.2222222 0.000237037037 0.789807407 13.4319407 0.789807407"></polygon>
        <polygon id="path-3" points="13.4666667 14.2222222 0.034962963 14.2222222 0.034962963 0.789807407 13.4666667 0.789807407 13.4666667 14.2222222"></polygon>
    </defs>
    <g id="new" stroke="none" stroke-width="1" fill="none" fill-rule="evenodd">
        <g id="Icon-图标" transform="translate(-377.000000, -1424.000000)">
            <g id="Group-14" transform="translate(371.000000, 1424.000000)">
                <g id="Group-17">
                    <g id="Page-1" transform="translate(6.000000, 0.000000)">
                        <path d="M11.8959407,13.4321778 L1.53623704,13.4321778 C0.687644444,13.4321778 0.000237037037,12.7447704 0.000237037037,11.8961778 L0.000237037037,1.53528889 C0.000237037037,0.687881481 0.687644444,0.000474074074 1.53623704,0.000474074074 L11.8959407,0.000474074074 C12.7445333,0.000474074074 13.4319407,0.687881481 13.4319407,1.53528889 L13.4319407,11.8961778 C13.4319407,12.7447704 12.7445333,13.4321778 11.8959407,13.4321778" id="Fill-1" fill="#4E4E4E"></path>
                        <path d="M29.7084444,13.4321778 L19.3487407,13.4321778 C18.5001481,13.4321778 17.8127407,12.7447704 17.8127407,11.8961778 L17.8127407,1.53528889 C17.8127407,0.687881481 18.5001481,0.000474074074 19.3487407,0.000474074074 L29.7084444,0.000474074074 C30.557037,0.000474074074 31.2444444,0.687881481 31.2444444,1.53528889 L31.2444444,11.8961778 C31.2444444,12.7447704 30.557037,13.4321778 29.7084444,13.4321778" id="Fill-3" fill="#4E4E4E"></path>
                        <g id="Group-7" transform="translate(0.000000, 17.022578)">
                            <mask id="mask-2" fill="white">
                                <use xlink:href="#path-1"></use>
                            </mask>
                            <g id="Clip-6"></g>
                            <path d="M11.8959407,14.2226963 L1.53623704,14.2226963 C0.687644444,14.2226963 0.000237037037,13.5341037 0.000237037037,12.6866963 L0.000237037037,2.32580741 C0.000237037037,1.4784 0.687644444,0.789807407 1.53623704,0.789807407 L11.8959407,0.789807407 C12.7445333,0.789807407 13.4319407,1.4784 13.4319407,2.32580741 L13.4319407,12.6866963 C13.4319407,13.5341037 12.7445333,14.2226963 11.8959407,14.2226963" id="Fill-5" fill="#4E4E4E" mask="url(#mask-2)"></path>
                        </g>
                        <g id="Group-10" transform="translate(17.777778, 17.022578)">
                            <mask id="mask-4" fill="white">
                                <use xlink:href="#path-3"></use>
                            </mask>
                            <g id="Clip-9"></g>
                            <path d="M11.9306667,14.2226963 L1.57096296,14.2226963 C0.72237037,14.2226963 0.034962963,13.5341037 0.034962963,12.6866963 L0.034962963,2.32580741 C0.034962963,1.4784 0.72237037,0.789807407 1.57096296,0.789807407 L11.9306667,0.789807407 C12.7792593,0.789807407 13.4666667,1.4784 13.4666667,2.32580741 L13.4666667,12.6866963 C13.4666667,13.5341037 12.7792593,14.2226963 11.9306667,14.2226963" id="Fill-8" fill="#4E4E4E" mask="url(#mask-4)"></path>
                        </g>
                    </g>
                </g>
            </g>
        </g>
    </g>
</svg>