<?xml version="1.0" encoding="UTF-8"?>
<svg width="1em" height="1em" viewBox="0 0 20 5" version="1.1" fill="currentColor" stroke="currentColor" xmlns="http://www.w3.org/2000/svg" xmlns:xlink="http://www.w3.org/1999/xlink">
    <!-- Generator: Sketch 50.2 (55047) - http://www.bohemiancoding.com/sketch -->
    <title>Page 1</title>
    <desc>Created with Sketch.</desc>
    <defs>
        <polygon id="path-1" points="5.08705882 4.8 0.56 4.8 0.56 0.18276 5.08705882 0.18276"></polygon>
        <polygon id="path-3" points="0 0.18276 0 4.8 4.52635294 4.8 4.52635294 0.18276"></polygon>
        <polygon id="path-5" points="4.64705882 0.18276 4.64705882 4.8 0.119529412 4.8 0.119529412 0.18276 4.64705882 0.18276"></polygon>
    </defs>
    <g id="new" stroke="none" stroke-width="1" fill="none" fill-rule="evenodd">
        <g id="Icon-图标" transform="translate(-860.000000, -1127.000000)">
            <g id="Group-16" transform="translate(850.000000, 1127.000000)">
                <g id="Page-1" transform="translate(10.000000, 0.000000)">
                    <g id="Group-3" transform="translate(7.058824, 0.017192)">
                        <mask id="mask-2" fill="white">
                            <use xlink:href="#path-1"></use>
                        </mask>
                        <g id="Clip-2"></g>
                        <path d="M2.82352941,0.18276 C1.57529412,0.18276 0.56,1.21836 0.56,2.49156 C0.56,3.76476 1.57529412,4.80036 2.82352941,4.80036 C4.07176471,4.80036 5.08705882,3.76476 5.08705882,2.49156 C5.08705882,1.21836 4.07176471,0.18276 2.82352941,0.18276" id="Fill-1" fill="#4E4E4E" mask="url(#mask-2)"></path>
                    </g>
                    <g id="Group-6" transform="translate(0.000000, 0.017192)">
                        <mask id="mask-4" fill="white">
                            <use xlink:href="#path-3"></use>
                        </mask>
                        <g id="Clip-5"></g>
                        <path d="M2.26282353,0.18276 C1.01458824,0.18276 -0.000705882353,1.21836 -0.000705882353,2.49156 C-0.000705882353,3.76476 1.01458824,4.80036 2.26282353,4.80036 C3.51105882,4.80036 4.52635294,3.76476 4.52635294,2.49156 C4.52635294,1.21836 3.51105882,0.18276 2.26282353,0.18276" id="Fill-4" fill="#4E4E4E" mask="url(#mask-4)"></path>
                    </g>
                    <g id="Group-9" transform="translate(15.117647, 0.017192)">
                        <mask id="mask-6" fill="white">
                            <use xlink:href="#path-5"></use>
                        </mask>
                        <g id="Clip-8"></g>
                        <path d="M2.38423529,0.18276 C1.13482353,0.18276 0.119529412,1.21836 0.119529412,2.49156 C0.119529412,3.76476 1.13482353,4.80036 2.38423529,4.80036 C3.63247059,4.80036 4.64776471,3.76476 4.64776471,2.49156 C4.64776471,1.21836 3.63247059,0.18276 2.38423529,0.18276" id="Fill-7" fill="#4E4E4E" mask="url(#mask-6)"></path>
                    </g>
                </g>
            </g>
        </g>
    </g>
</svg>