<?xml version="1.0" encoding="UTF-8"?>
<svg width="1em" height="1em" viewBox="0 0 23 7" version="1.1" fill="currentColor" stroke="currentColor" xmlns="http://www.w3.org/2000/svg" xmlns:xlink="http://www.w3.org/1999/xlink">
    <!-- Generator: Sketch 50.2 (55047) - http://www.bohemiancoding.com/sketch -->
    <title>Page 1</title>
    <desc>Created with Sketch.</desc>
    <defs></defs>
    <g id="new" stroke="none" stroke-width="1" fill="none" fill-rule="evenodd" stroke-linecap="round" stroke-linejoin="round">
        <g id="Icon-图标" transform="translate(-220.000000, -1281.000000)" stroke="#4E4E4E" stroke-width="2">
            <g id="Group-8" transform="translate(182.000000, 950.000000)">
                <g id="Group-13" transform="translate(0.000000, 333.000000)">
                    <g id="Page-1" transform="translate(40.000000, 0.000000)">
                        <path d="M12,1.5 C12,2.88103245 10.8804895,4 9.5,4 C8.11871244,4 7,2.88128756 7,1.5 C7,0.118712441 8.11871244,-1 9.5,-1 C10.8804895,-1 12,0.118967547 12,1.5 Z" id="Stroke-1"></path>
                        <path d="M4,1.5 C4,2.88103245 2.88048953,4 1.5,4 C0.119510471,4 -1,2.88103245 -1,1.5 C-1,0.118967547 0.119510471,-1 1.5,-1 C2.88048953,-1 4,0.118967547 4,1.5 Z" id="Stroke-3"></path>
                        <path d="M20,1.5 C20,2.88128756 18.8812876,4 17.5,4 C16.1195105,4 15,2.88103245 15,1.5 C15,0.118967547 16.1195105,-1 17.5,-1 C18.8812876,-1 20,0.118712441 20,1.5 Z" id="Stroke-5"></path>
                    </g>
                </g>
            </g>
        </g>
    </g>
</svg>