<?xml version="1.0" encoding="UTF-8"?>
<svg width="1em" height="1em" viewBox="0 0 34 28" version="1.1" fill="currentColor" stroke="currentColor" xmlns="http://www.w3.org/2000/svg" xmlns:xlink="http://www.w3.org/1999/xlink">
    <!-- Generator: Sketch 50.2 (55047) - http://www.bohemiancoding.com/sketch -->
    <title>Page 1</title>
    <desc>Created with Sketch.</desc>
    <defs></defs>
    <g id="new" stroke="none" stroke-width="1" fill="none" fill-rule="evenodd">
        <g id="Icon-图标" transform="translate(-535.000000, -1113.000000)">
            <g id="Group-8" transform="translate(182.000000, 950.000000)">
                <g id="Group-11" transform="translate(342.000000, 162.000000)">
                    <g id="Page-1" transform="translate(12.000000, 3.000000)">
                        <polygon id="Stroke-1" stroke="#4E4E4E" stroke-width="2.6" stroke-linecap="round" stroke-linejoin="round" points="1.06666667 24.3684267 30.8437333 24.3684267 30.8437333 0.000426666667 1.06666667 0.000426666667"></polygon>
                        <path d="M31.70784,23.7418667 L24.1547733,13.3301333 C23.96064,13.0645333 23.6555733,12.9013333 23.32704,12.8906667 C22.97184,12.8746667 22.68064,13.0218667 22.4715733,13.2746667 L18.4555733,18.1045333 L12.34784,9.80586667 C12.1473067,9.53386667 11.82944,9.3728 11.4923733,9.37173333 C11.1275733,9.33013333 10.8353067,9.52853333 10.6337067,9.79946667 L0.21344,23.7290667 C-0.0286933333,24.0533333 -0.0670933333,24.4853333 0.113173333,24.8458667 C0.294506667,25.2074667 0.663573333,25.4346667 1.06677333,25.4346667 L30.84384,25.4346667 C31.2449067,25.4346667 31.61184,25.2096 31.79424,24.8533333 C31.97664,24.496 31.9435733,24.0672 31.70784,23.7418667" id="Fill-3" fill="#4E4E4E"></path>
                        <path d="M25.16096,6.37834667 C25.4692267,7.90154667 24.4846933,9.38634667 22.9614933,9.69461333 C21.43936,10.0039467 19.9534933,9.01941333 19.6452267,7.49621333 C19.33696,5.97408 20.3204267,4.48928 21.8436267,4.17994667 C23.36576,3.87061333 24.8516267,4.85514667 25.16096,6.37834667" id="Fill-4" fill="#4E4E4E"></path>
                    </g>
                </g>
            </g>
        </g>
    </g>
</svg>