<?xml version="1.0" encoding="UTF-8"?>
<svg width="1em" height="1em" viewBox="0 0 37 37" version="1.1" fill="currentColor" stroke="currentColor" xmlns="http://www.w3.org/2000/svg" xmlns:xlink="http://www.w3.org/1999/xlink">
    <!-- Generator: Sketch 50.2 (55047) - http://www.bohemiancoding.com/sketch -->
    <title>Group 20</title>
    <desc>Created with Sketch.</desc>
    <defs></defs>
    <g id="new" stroke="none" stroke-width="1" fill="none" fill-rule="evenodd">
        <g id="Icon-图标" transform="translate(-533.000000, -948.000000)">
            <g id="Group-11" transform="translate(493.000000, 950.000000)">
                <g id="Group-20" transform="translate(42.000000, 0.000000)">
                    <g id="Page-1" transform="translate(11.000000, 7.000000)" fill="#4E4E4E">
                        <path d="M5.81572414,18.7785931 C5.67227586,18.7785931 5.52882759,18.7565241 5.39641379,18.7013517 C5.25296552,18.6461793 5.14262069,18.5579034 5.03227586,18.4585931 C4.98813793,18.4034207 4.93296552,18.3482483 4.89986207,18.2930759 C4.85572414,18.226869 4.82262069,18.1716966 4.80055172,18.1054897 C4.76744828,18.0392828 4.74537931,17.9620414 4.73434483,17.8958345 C4.72331034,17.8185931 4.71227586,17.7523862 4.71227586,17.6751448 C4.71227586,17.6089379 4.72331034,17.5316966 4.73434483,17.4654897 C4.74537931,17.3882483 4.76744828,17.3220414 4.80055172,17.2558345 C4.82262069,17.1896276 4.85572414,17.1234207 4.89986207,17.0682483 C4.93296552,17.0020414 4.98813793,16.946869 5.03227586,16.902731 C5.14262069,16.7923862 5.25296552,16.7151448 5.39641379,16.6599724 C5.80468966,16.4944552 6.2902069,16.5937655 6.59917241,16.902731 C6.64331034,16.946869 6.68744828,17.0020414 6.73158621,17.0682483 C6.77572414,17.1234207 6.80772414,17.1896276 6.83089655,17.2558345 C6.864,17.3220414 6.88606897,17.3882483 6.896,17.4654897 C6.90813793,17.5316966 6.91917241,17.6089379 6.91917241,17.6751448 C6.91917241,17.9730759 6.7977931,18.2489379 6.59917241,18.4585931 C6.38951724,18.6682483 6.11365517,18.7785931 5.81572414,18.7785931" id="Fill-3"></path>
                        <path d="M5.81572414,15.1400828 C5.20551724,15.1400828 4.71227586,14.6457379 4.71227586,14.0366345 L4.71227586,12.2148414 C4.71227586,10.6247724 5.65682759,9.17815172 7.06372414,8.6153931 C9.30593103,7.7193931 9.30262069,6.35111724 9.104,5.39994483 C8.84027586,4.13649655 7.81517241,3.1113931 6.55172414,2.84766897 C5.51227586,2.63028966 4.4982069,2.86973793 3.69489655,3.52297931 C2.90372414,4.16628966 2.4502069,5.11856552 2.4502069,6.13594483 C2.4502069,6.74615172 1.95696552,7.2393931 1.34675862,7.2393931 C0.736551724,7.2393931 0.243310345,6.74615172 0.243310345,6.13594483 C0.243310345,4.45097931 0.993655172,2.87415172 2.30234483,1.81042759 C3.61213793,0.746703448 5.32358621,0.33622069 7.00193103,0.687117241 C9.11172414,1.1273931 10.8242759,2.83994483 11.2634483,4.94973793 C11.7986207,7.50863448 10.566069,9.59304828 7.88248276,10.6644966 C7.30648276,10.8951172 6.91917241,11.5174621 6.91917241,12.2148414 L6.91917241,14.0366345 C6.91917241,14.6457379 6.42593103,15.1400828 5.81572414,15.1400828" id="Fill-5"></path>
                    </g>
                    <path d="M33,16.5 C33,25.6131778 25.6131778,33 16.5,33 C7.38682217,33 0,25.6131778 0,16.5 C0,7.38682217 7.38682217,0 16.5,0 C25.6131778,0 33,7.38682217 33,16.5 Z" id="Stroke-1" stroke="#4E4E4E" stroke-width="2.6" stroke-linecap="round" stroke-linejoin="round"></path>
                </g>
            </g>
        </g>
    </g>
</svg>