<?xml version="1.0" encoding="UTF-8"?>
<svg width="1em" height="1em" viewBox="0 0 32 32" version="1.1" fill="currentColor" stroke="currentColor" xmlns="http://www.w3.org/2000/svg" xmlns:xlink="http://www.w3.org/1999/xlink">
    <!-- Generator: Sketch 50.2 (55047) - http://www.bohemiancoding.com/sketch -->
    <title>Page 1</title>
    <desc>Created with Sketch.</desc>
    <defs></defs>
    <g id="new" stroke="none" stroke-width="1" fill="none" fill-rule="evenodd">
        <g id="Icon-图标" transform="translate(-696.000000, -1270.000000)" fill="#4E4E4E">
            <g id="Group-8" transform="translate(182.000000, 950.000000)">
                <g id="Group-11" transform="translate(340.000000, 320.000000)">
                    <g id="Group-15" transform="translate(159.000000, 0.000000)">
                        <path d="M41.4653597,17.1174213 L20.8137166,17.1174213 C20.1963999,17.1174213 19.6974116,16.6173167 19.6974116,16.0011163 C19.6974116,15.3849159 20.1963999,14.8848113 20.8137166,14.8848113 L41.4653597,14.8848113 C42.0826763,14.8848113 42.5816647,15.3849159 42.5816647,16.0011163 C42.5816647,16.6173167 42.0826763,17.1174213 41.4653597,17.1174213 M31,0.00111630503 C22.1778413,0.00111630503 15,7.17895765 15,16.0011163 C15,24.823275 22.1778413,32.0011163 31,32.0011163 C39.8221587,32.0011163 47,24.823275 47,16.0011163 C47,7.17895765 39.8221587,0.00111630503 31,0.00111630503" id="Page-1"></path>
                    </g>
                </g>
            </g>
        </g>
    </g>
</svg>